<?xml version="1.0" standalone="no"?>
<!DOCTYPE svg PUBLIC "-//W3C//DTD SVG 20010904//EN"
 "http://www.w3.org/TR/2001/REC-SVG-20010904/DTD/svg10.dtd">
<svg version="1.0" xmlns="http://www.w3.org/2000/svg"
 width="255.000000pt" height="255.000000pt" viewBox="0 0 255.000000 255.000000"
 preserveAspectRatio="xMidYMid meet">
<metadata>
Created by potrace 1.11, written by Peter Selinger 2001-2013
</metadata>
<g transform="translate(0.000000,255.000000) scale(0.100000,-0.100000)"
fill="#000000" stroke="none">
<path d="M637 2188 c-93 -32 -142 -89 -199 -228 -26 -63 -52 -127 -57 -142
-28 -74 -126 -141 -217 -147 -12 -1 -74 -122 -74 -145 0 -19 24 -37 56 -41 37
-4 56 -32 49 -74 -8 -54 -16 -84 -25 -106 -5 -11 -43 -102 -85 -203 -92 -224
-98 -265 -51 -362 26 -54 39 -68 83 -93 56 -31 62 -32 203 -42 75 -5 98 -4
107 7 15 18 61 180 56 195 -7 17 -32 23 -105 27 -35 1 -69 6 -76 10 -25 15
-10 79 67 289 44 119 84 238 88 264 10 53 0 102 -30 146 -17 27 -17 28 2 35
33 12 128 95 145 127 9 17 40 94 70 173 30 79 62 152 71 162 14 15 34 20 94
22 l76 3 18 54 c17 50 17 55 1 72 -25 28 -186 26 -267 -3z"/>
<path d="M1917 2078 c-12 -9 -18 -27 -19 -54 -1 -81 7 -88 101 -97 24 -3 47
-11 52 -18 10 -16 10 -21 13 -234 1 -88 7 -171 13 -185 6 -14 29 -48 51 -76
l41 -52 -31 -28 c-35 -34 -65 -89 -73 -135 -4 -19 -8 -134 -10 -256 -5 -303
-5 -304 -121 -298 -91 5 -103 -5 -106 -78 -2 -83 1 -120 10 -129 10 -10 107
-19 203 -20 99 0 194 63 240 160 32 69 30 43 26 447 -2 178 14 216 101 231 47
9 54 22 49 95 -3 69 -17 99 -45 99 -28 0 -83 42 -102 80 -16 31 -20 67 -24
210 -5 149 -9 179 -27 217 -39 80 -118 122 -244 129 -57 4 -85 1 -98 -8z"/>
<path d="M1304 2043 c-40 -19 -70 -73 -79 -138 -3 -27 -18 -104 -32 -170 -14
-66 -27 -131 -29 -145 -6 -30 -37 -181 -64 -310 -19 -88 -93 -455 -103 -511
-3 -13 -12 -52 -21 -87 -20 -76 -22 -118 -7 -155 42 -108 165 -109 245 -4 22
30 33 74 62 262 2 17 11 64 19 105 15 82 61 351 70 415 4 22 8 47 10 55 2 8 7
31 10 50 3 19 7 46 10 60 2 14 7 43 10 65 3 23 7 50 9 62 3 12 8 43 12 70 5
26 9 50 9 53 1 3 5 25 9 50 5 25 10 54 12 65 11 51 17 102 17 128 -2 68 -99
114 -169 80z"/>
<path d="M1052 1993 c-59 -29 -74 -62 -149 -338 -21 -79 -92 -318 -128 -430
-7 -22 -19 -65 -28 -95 -9 -30 -28 -97 -42 -148 -33 -114 -29 -166 16 -216 34
-40 64 -48 114 -30 81 27 146 119 160 224 1 8 5 22 8 30 3 8 11 42 17 75 6 33
27 128 45 210 19 83 36 161 38 175 3 14 12 54 21 90 61 252 87 394 76 420 -20
49 -86 64 -148 33z"/>
<path d="M1611 1942 c-33 -5 -66 -28 -87 -59 -15 -23 -33 -110 -49 -238 -3
-22 -10 -62 -15 -90 -12 -61 -17 -95 -26 -160 -3 -27 -8 -53 -10 -56 -1 -3 -6
-28 -10 -55 -6 -48 -9 -63 -19 -114 -2 -14 -7 -46 -9 -71 -3 -26 -14 -99 -26
-162 -11 -64 -18 -126 -16 -139 3 -13 5 -34 5 -47 1 -13 18 -40 40 -62 48 -48
96 -53 147 -14 68 52 91 126 109 354 4 45 8 91 10 100 2 10 6 51 9 93 4 41 8
85 11 96 2 11 6 56 10 99 3 43 8 94 10 113 2 19 7 62 10 95 3 33 8 80 11 105
12 97 11 140 -7 169 -19 31 -60 49 -98 43z"/>
<path d="M725 1784 c-41 -21 -59 -55 -116 -219 -26 -77 -68 -198 -93 -270 -46
-130 -49 -161 -24 -209 6 -11 18 -26 27 -33 44 -34 141 7 179 75 18 32 56 138
68 187 1 6 29 95 62 200 l60 190 -19 38 c-29 56 -83 71 -144 41z"/>
<path d="M1830 1681 c-67 -35 -79 -65 -85 -206 -3 -49 -7 -126 -9 -170 -17
-272 -17 -339 1 -375 21 -41 76 -80 104 -75 94 18 125 72 129 220 1 50 3 103
5 119 5 42 18 347 16 379 -2 43 -28 85 -64 107 -40 25 -53 25 -97 1z"/>
</g>
</svg>
